<svg width="386" height="423" viewBox="0 0 386 423" fill="none" xmlns="http://www.w3.org/2000/svg">
<path opacity="0.1" d="M193 422.999C299.591 422.999 386.001 336.687 386.001 230.215C386.001 123.744 299.591 37.4316 193 37.4316C86.4092 37.4316 0 123.744 0 230.215C0 336.687 86.4092 422.999 193 422.999Z" fill="#23408E"/>
<path d="M129.255 109.12C129.147 109.12 129.042 109.09 128.95 109.034C128.858 108.978 128.783 108.897 128.734 108.802C128.684 108.706 128.662 108.599 128.67 108.492C128.677 108.384 128.714 108.281 128.777 108.193C128.885 108.039 139.51 92.6968 127.649 78.71C125.549 76.221 122.93 74.2209 119.975 72.8497C117.02 71.4786 113.8 70.7697 110.542 70.7727H110.386C111.512 74.6812 111.311 78.1563 109.716 80.8222C109.036 82.027 108.033 83.0182 106.82 83.6842C105.607 84.3503 104.232 84.6647 102.849 84.5921C101.705 84.4986 100.613 84.0736 99.7067 83.3694C98.8006 82.6651 98.1197 81.7122 97.7477 80.6273C96.4432 77.2285 97.8064 73.9331 101.399 71.8092C103.675 70.5554 106.204 69.8289 108.8 69.6835C107.956 67.4474 106.858 65.3152 105.528 63.3287C101.245 56.7954 93.4398 52.2733 84.1126 50.9209C76.2087 49.7747 68.6335 51.1241 64.8117 54.3573C64.6928 54.458 64.5386 54.5073 64.3832 54.4945C64.2278 54.4817 64.0839 54.4077 63.9831 54.2889C63.8823 54.1701 63.8329 54.0161 63.8457 53.8609C63.8586 53.7057 63.9326 53.5619 64.0516 53.4612C68.1191 50.0202 76.0594 48.5656 84.2813 49.7589C93.9424 51.1593 102.044 55.8711 106.512 62.6857C107.961 64.8466 109.139 67.1766 110.021 69.6236C113.535 69.5392 117.023 70.2436 120.229 71.6846C123.435 73.1257 126.276 75.2668 128.543 77.9502C141.002 92.6416 129.847 108.712 129.733 108.872C129.679 108.948 129.607 109.011 129.524 109.054C129.441 109.097 129.349 109.12 129.255 109.12ZM109.181 70.818C106.665 70.9244 104.207 71.6097 101.999 72.8203C98.8975 74.6542 97.7488 77.3465 98.8464 80.2074C99.1436 81.0841 99.6903 81.8552 100.42 82.4263C101.149 82.9974 102.029 83.3438 102.952 83.423C104.114 83.4749 105.268 83.2029 106.285 82.6373C107.301 82.0717 108.14 81.2349 108.708 80.2204C110.174 77.7717 110.309 74.5174 109.181 70.818Z" fill="#292A2E"/>
<path d="M54.6602 63.8299C53.6623 64.1284 52.5871 64.0261 51.6636 63.5447C50.74 63.0632 50.0412 62.2407 49.7157 61.2522C49.3903 60.2637 49.464 59.1874 49.9212 58.2524C50.3783 57.3174 51.1828 56.5976 52.1634 56.2462C53.144 55.8949 54.2231 55.9398 55.171 56.3713C56.1189 56.8028 56.8607 57.587 57.2385 58.5567C57.6163 59.5264 57.6002 60.6052 57.1936 61.5632C56.787 62.5212 56.0221 63.2829 55.0617 63.686C54.9305 63.741 54.7965 63.789 54.6602 63.8299ZM52.7055 57.3018C52.6102 57.3308 52.5164 57.3645 52.4245 57.4028C51.7474 57.6875 51.2083 58.225 50.922 58.9009C50.6358 59.5767 50.625 60.3375 50.892 61.0212C51.1589 61.7049 51.6826 62.2574 52.3514 62.5612C53.0201 62.8649 53.7812 62.8958 54.4725 62.6474C55.1638 62.3989 55.7306 61.8907 56.0523 61.2309C56.374 60.5712 56.4251 59.812 56.1948 59.1152C55.9645 58.4184 55.4709 57.8389 54.8191 57.5002C54.1674 57.1615 53.409 57.0903 52.7055 57.3018Z" fill="#292A2E"/>
<path d="M54.6563 54.6226C53.7113 54.9042 52.6954 54.827 51.804 54.4058C50.9125 53.9846 50.2084 53.2491 49.827 52.3407C49.521 51.6124 49.4382 50.8099 49.5889 50.0346C49.7397 49.2593 50.1172 48.546 50.6737 47.9851C51.2303 47.4241 51.9409 47.0406 52.7156 46.883C53.4904 46.7254 54.2946 46.8009 55.0264 47.0999C55.7582 47.3989 56.3849 47.9079 56.827 48.5626C57.2692 49.2174 57.5071 49.9884 57.5106 50.7781C57.5141 51.5679 57.283 52.341 56.8466 52.9996C56.4103 53.6582 55.7881 54.1727 55.059 54.4781C54.9273 54.5331 54.7929 54.5813 54.6563 54.6226ZM52.704 48.0963C52.6078 48.1252 52.5132 48.1591 52.4206 48.1979C51.7309 48.4872 51.1843 49.0382 50.9011 49.7298C50.6179 50.4214 50.6213 51.197 50.9104 51.8862C51.1213 52.3885 51.4734 52.819 51.9241 53.1257C52.3747 53.4323 52.9047 53.602 53.4499 53.6141C53.9951 53.6262 54.5321 53.4802 54.996 53.1939C55.4599 52.9075 55.8307 52.4931 56.0638 52.0006C56.2968 51.5082 56.382 50.9588 56.309 50.419C56.236 49.8792 56.0081 49.3721 55.6526 48.959C55.2972 48.5459 54.8296 48.2445 54.3063 48.0913C53.783 47.9381 53.2264 47.9403 52.704 48.0963Z" fill="#292A2E"/>
<path d="M53.5164 58.7757C56.4034 58.7757 58.7437 57.2143 58.7437 55.2882C58.7437 53.3622 56.4034 51.8008 53.5164 51.8008C50.6294 51.8008 48.2891 53.3622 48.2891 55.2882C48.2891 57.2143 50.6294 58.7757 53.5164 58.7757Z" fill="white"/>
<path d="M55.8238 59.0323C55.0744 59.2539 54.2967 59.3655 53.5152 59.3635C50.2543 59.3635 47.6983 57.5784 47.6953 55.2936C47.6924 53.0087 50.2467 51.2172 53.507 51.2142C54.9284 51.1871 56.3269 51.5748 57.531 52.3299C58.0715 52.6114 58.5246 53.0355 58.8409 53.5561C59.1572 54.0766 59.3247 54.6738 59.3252 55.2828C59.3257 55.8917 59.1591 56.4891 58.8436 57.0102C58.5281 57.5313 58.0758 57.9561 57.5357 58.2384C57.0076 58.5863 56.4306 58.8539 55.8238 59.0323ZM51.5564 52.6729C49.9857 53.1426 48.8716 54.1561 48.8728 55.2953C48.8728 56.8679 50.9991 58.1938 53.514 58.192C54.7033 58.217 55.874 57.8952 56.8831 57.266C57.2617 57.0918 57.5823 56.8129 57.8069 56.4622C58.0315 56.1115 58.1507 55.7038 58.1503 55.2875C58.15 54.8711 58.0301 54.4636 57.8048 54.1133C57.5796 53.763 57.2585 53.4846 56.8796 53.3112C55.8695 52.684 54.6983 52.3644 53.5093 52.3916C52.8482 52.3903 52.1903 52.485 51.5564 52.6729Z" fill="#292A2E"/>
<path d="M54.7972 58.6687L54.6737 51.8871L52.9853 51.8184L52.8672 58.748L54.7972 58.6687Z" fill="#292A2E"/>
<path d="M46.5787 56.7637C46.8768 56.7637 47.1184 56.5223 47.1184 56.2246C47.1184 55.9269 46.8768 55.6855 46.5787 55.6855C46.2807 55.6855 46.0391 55.9269 46.0391 56.2246C46.0391 56.5223 46.2807 56.7637 46.5787 56.7637Z" fill="#292A2E"/>
<path d="M47.0006 53.8789C47.2987 53.8789 47.5403 53.6376 47.5403 53.3398C47.5403 53.0421 47.2987 52.8008 47.0006 52.8008C46.7026 52.8008 46.4609 53.0421 46.4609 53.3398C46.4609 53.6376 46.7026 53.8789 47.0006 53.8789Z" fill="#292A2E"/>
<path d="M226.118 77.9615C225.992 77.9614 225.87 77.9211 225.769 77.8464C225.667 77.7716 225.593 77.6665 225.556 77.5463C223.606 70.273 223.086 62.6911 224.024 55.22C225.544 44.2979 231.574 29.9635 251.672 23.6868C254.499 22.7786 257.4 22.1144 260.341 21.7015C261.288 15.7959 264.891 9.38418 272.945 4.9625C292.088 -5.54386 305.018 3.88262 305.146 3.97892C305.271 4.07236 305.353 4.21147 305.375 4.36564C305.397 4.51981 305.357 4.67642 305.263 4.80101C305.17 4.9256 305.031 5.00797 304.876 5.02999C304.722 5.05202 304.565 5.0119 304.44 4.91845C304.318 4.82685 291.961 -4.13456 273.512 5.99246C265.984 10.1247 262.537 16.0555 261.557 21.5611C270.422 20.6891 274.667 23.6428 276.572 25.8736C277.751 27.2149 278.509 28.8732 278.752 30.6418C278.994 32.4104 278.71 34.2112 277.935 35.8198C277.322 37.1193 276.329 38.2027 275.087 38.927C273.845 39.6512 272.412 39.9824 270.978 39.8768C266.027 39.5867 261.931 35.4269 260.542 29.2788C260.084 27.1977 259.962 25.0566 260.181 22.937C257.414 23.334 254.686 23.9608 252.023 24.8108C236.359 29.7028 227.333 39.9901 225.188 55.385C224.269 62.6866 224.776 70.0968 226.68 77.2057C226.707 77.2935 226.713 77.3864 226.697 77.4769C226.682 77.5674 226.645 77.653 226.591 77.7269C226.536 77.8007 226.465 77.8607 226.383 77.9021C226.301 77.9434 226.21 77.965 226.118 77.965V77.9615ZM261.38 22.7902C261.135 24.8695 261.239 26.975 261.689 29.0199C262.959 34.6442 266.632 38.4452 271.047 38.7042C272.25 38.7902 273.451 38.511 274.492 37.9032C275.534 37.2954 276.367 36.3875 276.883 35.2983C277.555 33.8959 277.799 32.3271 277.585 30.7872C277.37 29.2472 276.708 27.8042 275.679 26.6376C272.93 23.4156 267.914 22.1143 261.38 22.7902Z" fill="#292A2E"/>
<path d="M318.847 9.91504C318.055 9.91349 317.28 9.68832 316.61 9.26551C315.941 8.84269 315.405 8.23948 315.065 7.52549C314.724 6.8115 314.592 6.01584 314.685 5.23035C314.778 4.44486 315.091 3.70155 315.588 3.08623C316.086 2.4709 316.747 2.00864 317.497 1.75281C318.246 1.49697 319.052 1.45798 319.823 1.64034C320.593 1.8227 321.296 2.21898 321.851 2.78343C322.406 3.34789 322.789 4.05751 322.958 4.83039C323.089 5.44299 323.082 6.07727 322.937 6.68679C322.792 7.29631 322.512 7.86564 322.117 8.3531C321.723 8.84056 321.225 9.23382 320.659 9.50407C320.093 9.77433 319.474 9.91474 318.847 9.91504ZM318.855 2.70176C318.23 2.70162 317.62 2.89522 317.11 3.25587C316.599 3.61652 316.213 4.12646 316.005 4.71541C315.797 5.30436 315.777 5.94332 315.947 6.54422C316.118 7.14512 316.471 7.67836 316.958 8.07046C317.444 8.46256 318.041 8.69421 318.665 8.73347C319.289 8.77274 319.91 8.61769 320.442 8.28969C320.974 7.96169 321.391 7.4769 321.636 6.90214C321.881 6.32737 321.941 5.69093 321.808 5.08054C321.666 4.40477 321.295 3.79884 320.756 3.36534C320.218 2.93184 319.547 2.69742 318.855 2.70176Z" fill="#292A2E"/>
<path d="M317.077 19.4991C315.999 19.4989 314.963 19.086 314.181 18.3456C313.399 17.6052 312.931 16.5935 312.873 15.5188C312.816 14.4442 313.172 13.3883 313.871 12.5685C314.569 11.7488 315.555 11.2275 316.626 11.1121C317.697 10.9968 318.772 11.296 319.629 11.9482C320.486 12.6004 321.06 13.556 321.233 14.6183C321.406 15.6806 321.165 16.7686 320.559 17.6586C319.953 18.5485 319.029 19.1725 317.976 19.4022C317.681 19.4666 317.379 19.4991 317.077 19.4991ZM317.092 12.2852C316.874 12.2854 316.658 12.3088 316.445 12.3551C315.694 12.5198 315.035 12.9658 314.603 13.6012C314.172 14.2367 314 15.0132 314.124 15.7711C314.248 16.5291 314.658 17.2107 315.27 17.6758C315.882 18.1409 316.649 18.354 317.413 18.2714C318.177 18.1888 318.881 17.8168 319.379 17.2317C319.877 16.6467 320.132 15.8932 320.091 15.1264C320.05 14.3595 319.716 13.6376 319.158 13.1091C318.6 12.5806 317.861 12.2857 317.092 12.2852Z" fill="#292A2E"/>
<path d="M323.386 11.6309C323.756 9.62518 321.62 7.55003 318.613 6.9959C315.607 6.44177 312.87 7.6185 312.499 9.62421C312.128 11.6299 314.265 13.7051 317.272 14.2592C320.278 14.8133 323.015 13.6366 323.386 11.6309Z" fill="white"/>
<path d="M318.758 14.9826C318.226 14.9817 317.694 14.9326 317.171 14.8358C315.692 14.5907 314.318 13.9201 313.215 12.9062C312.732 12.4949 312.361 11.9688 312.136 11.3763C311.911 10.7839 311.839 10.1444 311.927 9.51681C312.069 8.89931 312.365 8.32759 312.787 7.85446C313.209 7.38133 313.744 7.02204 314.341 6.80977C315.74 6.28198 317.256 6.14622 318.726 6.41719C320.197 6.68815 321.565 7.35552 322.683 8.34709C323.165 8.75836 323.536 9.28452 323.761 9.87694C323.986 10.4694 324.058 11.1089 323.971 11.7365C323.828 12.354 323.532 12.9257 323.111 13.3988C322.689 13.8719 322.154 14.2312 321.556 14.4435C320.67 14.8101 319.718 14.9935 318.758 14.9826ZM317.134 7.44396C316.336 7.43382 315.544 7.58502 314.806 7.88848C314.388 8.02821 314.012 8.26976 313.711 8.59128C313.41 8.91281 313.194 9.30416 313.083 9.72997C313.034 10.1674 313.096 10.6101 313.262 11.0177C313.428 11.4253 313.694 11.785 314.034 12.0641C314.985 12.8931 316.142 13.4513 317.383 13.6802C318.624 13.909 319.904 13.8001 321.089 13.3648C321.507 13.2251 321.883 12.9836 322.184 12.662C322.484 12.3405 322.7 11.9491 322.811 11.5233C322.86 11.0859 322.798 10.6433 322.632 10.2358C322.465 9.8282 322.2 9.46847 321.86 9.18915C320.924 8.33638 319.759 7.77461 318.509 7.57256C318.055 7.48823 317.595 7.44519 317.134 7.44396Z" fill="#292A2E"/>
<path d="M317.268 6.85938L316.086 13.9446L317.83 14.3416L319.293 7.14887L317.268 6.85938Z" fill="#292A2E"/>
<path d="M324.353 14.4814C324.668 14.4814 324.924 14.2258 324.924 13.9106C324.924 13.5954 324.668 13.3398 324.353 13.3398C324.037 13.3398 323.781 13.5954 323.781 13.9106C323.781 14.2258 324.037 14.4814 324.353 14.4814Z" fill="#292A2E"/>
<path d="M325.345 11.5595C325.66 11.5595 325.916 11.304 325.916 10.9887C325.916 10.6735 325.66 10.418 325.345 10.418C325.029 10.418 324.773 10.6735 324.773 10.9887C324.773 11.304 325.029 11.5595 325.345 11.5595Z" fill="#292A2E"/>
<path d="M326.538 117.618V336.94C326.538 339.443 325.543 341.843 323.771 343.612C322 345.382 319.597 346.376 317.091 346.376H39.5168C37.0114 346.376 34.6087 345.382 32.8371 343.612C31.0656 341.843 30.0703 339.443 30.0703 336.94V160.437C30.0705 157.934 31.0658 155.534 32.8373 153.765C34.6088 151.995 37.0115 151.001 39.5168 151.001H206.011C208.517 151.001 210.919 150.007 212.691 148.237C214.462 146.468 215.458 144.068 215.458 141.565V117.618C215.458 115.115 216.453 112.715 218.225 110.945C219.996 109.176 222.399 108.182 224.904 108.182H317.091C319.597 108.182 322 109.176 323.771 110.945C325.543 112.715 326.538 115.115 326.538 117.618Z" fill="#23408E"/>
<path d="M317.093 346.964H39.5193C36.859 346.961 34.3085 345.904 32.4272 344.025C30.546 342.146 29.4876 339.599 29.4844 336.942V160.438C29.4876 157.781 30.546 155.233 32.4272 153.354C34.3085 151.475 36.859 150.419 39.5193 150.416H206.014C208.362 150.413 210.614 149.48 212.275 147.821C213.936 146.162 214.87 143.912 214.872 141.566V117.619C214.875 114.962 215.933 112.414 217.814 110.535C219.695 108.656 222.246 107.599 224.906 107.596H317.093C319.754 107.599 322.304 108.656 324.185 110.535C326.067 112.414 327.125 114.961 327.128 117.619V336.942C327.125 339.599 326.066 342.146 324.185 344.025C322.304 345.904 319.754 346.961 317.093 346.964ZM39.5193 151.59C37.1707 151.593 34.9189 152.525 33.2581 154.184C31.5972 155.843 30.6629 158.092 30.6601 160.438V336.942C30.6628 339.288 31.597 341.537 33.2579 343.196C34.9187 344.855 37.1706 345.788 39.5193 345.79H317.093C319.442 345.788 321.694 344.854 323.354 343.196C325.015 341.537 325.949 339.288 325.952 336.942V117.619C325.949 115.273 325.015 113.024 323.354 111.365C321.694 109.706 319.442 108.773 317.093 108.77H224.906C222.558 108.773 220.306 109.706 218.645 111.365C216.985 113.024 216.051 115.273 216.048 117.619V141.565C216.045 144.222 214.987 146.77 213.106 148.649C211.225 150.528 208.674 151.585 206.014 151.588L39.5193 151.59Z" fill="#262626"/>
<path d="M344.171 117.618V336.94C344.171 339.443 343.175 341.843 341.404 343.612C339.632 345.382 337.23 346.376 334.724 346.376H57.1496C54.6442 346.376 52.2415 345.382 50.4699 343.612C48.6984 341.843 47.7031 339.443 47.7031 336.94V160.437C47.7033 157.934 48.6986 155.534 50.4701 153.765C52.2416 151.995 54.6443 151.001 57.1496 151.001H223.644C226.149 151.001 228.552 150.007 230.324 148.237C232.095 146.468 233.091 144.068 233.091 141.565V117.618C233.091 115.115 234.086 112.715 235.857 110.945C237.629 109.176 240.032 108.182 242.537 108.182H334.724C337.23 108.182 339.632 109.176 341.404 110.945C343.175 112.715 344.171 115.115 344.171 117.618Z" fill="white"/>
<path d="M334.726 346.964H57.1521C54.4918 346.961 51.9413 345.904 50.06 344.025C48.1788 342.146 47.1205 339.599 47.1172 336.942V160.438C47.1205 157.781 48.1788 155.233 50.06 153.354C51.9413 151.475 54.4918 150.419 57.1521 150.416H223.647C225.995 150.413 228.247 149.48 229.908 147.821C231.568 146.162 232.503 143.912 232.505 141.566V117.619C232.508 114.962 233.566 112.414 235.447 110.535C237.328 108.656 239.879 107.599 242.539 107.596H334.726C337.387 107.599 339.937 108.656 341.818 110.535C343.699 112.414 344.758 114.961 344.76 117.619V336.942C344.757 339.599 343.699 342.146 341.818 344.025C339.937 345.904 337.386 346.961 334.726 346.964ZM57.1521 151.59C54.8035 151.593 52.5517 152.525 50.8909 154.184C49.23 155.843 48.2957 158.092 48.2929 160.438V336.942C48.2956 339.288 49.2298 341.537 50.8907 343.196C52.5515 344.855 54.8034 345.788 57.1521 345.79H334.726C337.075 345.788 339.326 344.854 340.987 343.196C342.648 341.537 343.582 339.288 343.585 336.942V117.619C343.582 115.273 342.648 113.024 340.987 111.365C339.326 109.706 337.075 108.773 334.726 108.77H242.539C240.19 108.773 237.939 109.706 236.278 111.365C234.618 113.024 233.684 115.273 233.681 117.619V141.565C233.678 144.222 232.62 146.77 230.739 148.649C228.858 150.528 226.307 151.585 223.647 151.588L57.1521 151.59Z" fill="#262626"/>
<path d="M173.54 228.263C177.148 228.263 180.073 225.342 180.073 221.738C180.073 218.134 177.148 215.213 173.54 215.213C169.932 215.213 167.008 218.134 167.008 221.738C167.008 225.342 169.932 228.263 173.54 228.263Z" fill="#292A2E"/>
<path d="M218.337 228.263C221.945 228.263 224.87 225.342 224.87 221.738C224.87 218.134 221.945 215.213 218.337 215.213C214.729 215.213 211.805 218.134 211.805 221.738C211.805 225.342 214.729 228.263 218.337 228.263Z" fill="#292A2E"/>
</svg>
