<svg width="83" height="83" viewBox="0 0 83 83" fill="none" xmlns="http://www.w3.org/2000/svg">
<rect x="7" y="7" width="69" height="69" rx="34.5" fill="#D1FADF"/>
<rect x="7" y="7" width="69" height="69" rx="34.5" stroke="#ECFDF3" stroke-width="12.3214"/>
<path d="M55.875 40.1774V41.4999C55.8732 44.5998 54.8695 47.616 53.0134 50.0988C51.1574 52.5816 48.5485 54.3979 45.5758 55.2768C42.6032 56.1557 39.4261 56.0502 36.5183 54.9759C33.6105 53.9016 31.1279 51.9162 29.4408 49.3157C27.7536 46.7152 26.9522 43.639 27.1562 40.5459C27.3601 37.4527 28.5585 34.5084 30.5725 32.152C32.5866 29.7955 35.3084 28.1533 38.332 27.4701C41.3557 26.787 44.5191 27.0995 47.3506 28.3612M55.875 29.9999L41.5 44.3893L37.1875 40.0768" stroke="#039855" stroke-width="2.875" stroke-linecap="round" stroke-linejoin="round"/>
</svg>
